<?xml version="1.0" encoding="UTF-8"?>
<svg id="Layer_1" data-name="Layer 1" xmlns="http://www.w3.org/2000/svg" viewBox="0 0 470.191 186.96">
  <defs>
    <style>
      .cls-1 {
        fill: #2e2f30;
        stroke-width: 0px;
      }
    </style>
  </defs>
  <path class="cls-1" d="M0,101.386v26.509h41.857v-6.976h37.206v6.976h41.857v-26.509h-5.581v-36.741H11.162c0,27.905-2.79,36.741-11.162,36.741M73.947,84.179v17.208h-30.695c1.86-3.721,2.79-11.162,2.79-17.208h27.905M177.659,21.859c13.487,0,20.463,2.79,20.463,8.836,0,6.511-6.976,8.836-20.463,8.836-13.022,0-19.998-2.325-19.998-8.836,0-6.046,6.976-8.836,19.998-8.836M177.659,61.855c40.927,0,59.53-9.302,59.53-30.695,0-21.859-18.603-31.16-59.53-31.16-40.462,0-59.53,9.302-59.53,31.16,0,21.393,19.068,30.695,59.53,30.695M41.857,60.46V22.324h31.625v38.136h41.857V1.395H0v59.065h41.857M310.67,41.392v19.068h41.857V1.395h-41.857v19.068h-28.835V1.395h-41.857v59.065h41.857v-19.068h28.835M398.105,43.717v-5.116h63.715v-15.347h-63.715v-5.116h71.157V1.395h-112.548v59.065h112.548v-16.743h-71.157M233.933,64.645h-108.828v59.065h108.828v-16.743h-66.971v-5.116h59.53v-15.347h-59.53v-5.116h66.971v-16.743M251.141,123.71c24.649,0,35.346-11.627,35.346-38.136h24.184v38.136h41.857v-59.065h-99.526v6.511c0,16.743-3.256,21.859-14.882,21.859v30.695h13.022M398.57,104.177v-8.836h18.603c7.906,0,11.162,1.395,11.162,4.651,0,2.79-3.256,4.186-11.162,4.186h-18.603M398.57,75.807v-11.162h-41.857v59.065h75.342c26.509,0,38.136-7.441,38.136-24.184s-11.627-23.719-38.136-23.719h-33.485M307.88,127.896l-13.952,19.068h-13.952v-19.068h-41.857v59.065h41.857v-19.068h13.952l13.952,19.068h47.438l-25.114-31.625,22.324-27.439h-44.647M164.172,155.8v-27.905h-39.066v59.065h41.857l27.905-27.905v27.905h39.066v-59.065h-41.857l-27.905,27.905M41.857,148.359v-17.673H0v56.274h41.857v-17.673h37.206v17.673h41.857v-56.274h-41.857v17.673h-37.206" vector-effect="none"/>
</svg>