<?xml version="1.0" encoding="UTF-8"?>
<svg
  id="_Слой_1"
  data-name="Слой 1"
  xmlns="http://www.w3.org/2000/svg"
  viewBox="0 0 668.02 192.187">
  <defs>
    <style>
      .cls-1 {
        fill: #000;
      }

      .cls-1,
      .cls-2 {
        stroke-width: 0px;
      }

      .cls-2 {
        fill: #fc3f1d;
      }
    </style>
  </defs>
  <path
    class="cls-2"
    d="M81.443,22.303h-12.897c-23.645,0-36.064,11.863-36.064,29.421,0,19.93,8.598,29.184,26.272,41.047l14.569,9.728-42.035,62.401H0l37.736-55.758C16.002,93.721,3.821,78.773,3.821,53.385,3.821,21.591,26.033,0,68.307,0h42.035v164.901h-28.899V22.303Z" />
  <g>
    <path
      class="cls-1"
      d="M344.638,45.555h-82.875v10.203c0,29.184-1.911,66.909-11.942,86.84h-8.837v49.589h26.272v-27.286h63.769v27.286h26.272v-49.589h-12.658V45.555ZM316.217,142.598h-40.124c7.882-18.032,10.031-50.538,10.031-71.18v-3.559h30.093v74.739Z" />
    <polygon
      class="cls-1"
      points="200.621 92.772 162.646 92.772 162.646 45.555 134.225 45.555 134.225 164.901 162.646 164.901 162.646 115.075 200.621 115.075 200.621 164.901 229.042 164.901 229.042 45.555 200.621 45.555 200.621 92.772" />
    <path
      class="cls-1"
      d="M640.554,65.486c10.986,0,21.734,3.796,27.466,7.355v-23.964c-5.971-3.322-16.479-5.694-30.571-5.694-36.303,0-55.171,25.862-55.171,62.164,0,39.861,18.39,61.927,56.365,61.927,13.136,0,22.45-2.373,29.377-7.355v-23.015c-7.165,4.983-15.763,8.067-27.705,8.067-20.301,0-28.66-15.66-28.66-40.336,0-25.862,10.27-39.149,28.899-39.149Z" />
    <polygon
      class="cls-1"
      points="578.457 45.555 549.797 45.555 509.673 100.602 509.673 45.555 481.252 45.555 481.252 164.901 509.673 164.901 509.673 106.296 551.708 164.901 583.95 164.901 538.333 100.602 578.457 45.555" />
    <path
      class="cls-1"
      d="M415.333,43.183c-34.631,0-51.11,26.337-51.11,62.401,0,41.522,20.54,61.69,56.843,61.69,18.151,0,31.526-4.745,39.885-10.44v-23.015c-8.837,5.932-23.645,11.152-37.497,11.152-20.779,0-28.66-9.728-29.854-29.659h68.545v-14.948c0-41.522-18.39-57.181-46.811-57.181ZM433.246,94.433h-39.646c.716-18.981,7.643-28.947,21.256-28.947,14.091,0,18.39,11.626,18.39,26.574v2.373Z" />
  </g>
</svg>
