<?xml version="1.0" encoding="UTF-8"?>
<svg id="Layer_1" data-name="Layer 1" xmlns="http://www.w3.org/2000/svg" viewBox="0 0 696.032 352.684">
  <defs>
    <style>
      .cls-1, .cls-2, .cls-3, .cls-4, .cls-5, .cls-6, .cls-7, .cls-8, .cls-9, .cls-10, .cls-11 {
        stroke-miterlimit: 10;
      }

      .cls-1, .cls-8 {
        fill: #e6e4e4;
      }

      .cls-1, .cls-9 {
        stroke: #f54237;
      }

      .cls-2 {
        stroke-dasharray: 0 0 1.998 1.998;
      }

      .cls-2, .cls-3, .cls-4, .cls-5, .cls-6, .cls-7, .cls-9, .cls-11 {
        fill: none;
      }

      .cls-2, .cls-3, .cls-4, .cls-6, .cls-7, .cls-8, .cls-10 {
        stroke: #4d4d4d;
      }

      .cls-12 {
        fill: #d0cccc;
      }

      .cls-12, .cls-13, .cls-14, .cls-15 {
        stroke-width: 0px;
      }

      .cls-3 {
        stroke-dasharray: 0 0 2.001 2.001;
      }

      .cls-3, .cls-5, .cls-6, .cls-9, .cls-10 {
        stroke-width: .5px;
      }

      .cls-13, .cls-10 {
        fill: #4d4d4d;
      }

      .cls-5 {
        stroke: #e6e4e4;
      }

      .cls-14 {
        fill: #928888;
      }

      .cls-7 {
        stroke-width: .25px;
      }

      .cls-15 {
        fill: #e3a941;
      }

      .cls-11 {
        stroke: #e3a941;
      }
    </style>
  </defs>
  <rect class="cls-12" x="518.412" y="208.851" width="177.37" height="136.387" rx="5.124" ry="5.124"/>
  <rect class="cls-12" y="208.851" width="515.095" height="136.387" rx="8.732" ry="8.732"/>
  <g>
    <circle class="cls-8" cx="18.07" cy="41.968" r="8.345"/>
    <circle class="cls-8" cx="18.07" cy="68.384" r="8.345"/>
    <rect class="cls-8" x="11.471" y="100.918" width="13.198" height="13.198" transform="translate(-70.733 44.268) rotate(-45)"/>
    <rect class="cls-8" x="11.471" y="126.331" width="13.198" height="13.198" transform="translate(-88.704 51.712) rotate(-45)"/>
    <line class="cls-4" x1="34.191" y1="41.968" x2="208.482" y2="41.968"/>
    <line class="cls-4" x1="34.191" y1="68.384" x2="208.482" y2="68.384"/>
    <line class="cls-4" x1="34.191" y1="107.517" x2="208.482" y2="107.517"/>
    <line class="cls-4" x1="34.191" y1="132.931" x2="208.482" y2="132.931"/>
    <g>
      <line class="cls-4" x1="9.725" y1="87.606" x2="10.725" y2="87.606"/>
      <line class="cls-2" x1="12.723" y1="87.606" x2="646.943" y2="87.606"/>
      <line class="cls-4" x1="647.941" y1="87.606" x2="648.941" y2="87.606"/>
    </g>
    <rect class="cls-7" y="23.25" width="223.28" height="129.871" rx="5.699" ry="5.699"/>
    <line class="cls-6" x1="191.133" y1="41.968" x2="191.133" y2="68.384"/>
    <line class="cls-9" x1="49.988" y1="41.968" x2="49.988" y2="68.384"/>
    <line class="cls-6" x1="98.721" y1="107.517" x2="98.721" y2="133.933"/>
    <line class="cls-6" x1="85.778" y1="68.384" x2="85.778" y2="107.517"/>
    <line class="cls-9" x1="152.258" y1="41.968" x2="152.258" y2="107.517"/>
    <circle class="cls-8" cx="254.321" cy="41.968" r="8.345"/>
    <circle class="cls-8" cx="254.321" cy="68.384" r="8.345"/>
    <rect class="cls-8" x="247.722" y="100.918" width="13.198" height="13.198" transform="translate(-1.537 211.323) rotate(-45)"/>
    <rect class="cls-8" x="247.722" y="126.331" width="13.198" height="13.198" transform="translate(-19.507 218.767) rotate(-45)"/>
    <line class="cls-4" x1="270.442" y1="41.968" x2="444.733" y2="41.968"/>
    <line class="cls-4" x1="270.442" y1="68.384" x2="444.733" y2="68.384"/>
    <line class="cls-4" x1="270.442" y1="107.517" x2="444.733" y2="107.517"/>
    <line class="cls-4" x1="270.442" y1="132.931" x2="444.733" y2="132.931"/>
    <rect class="cls-7" x="236.251" y="23.25" width="223.28" height="129.871" rx="5.699" ry="5.699"/>
    <line class="cls-6" x1="309.081" y1="107.517" x2="309.081" y2="132.931"/>
    <line class="cls-9" x1="289.98" y1="107.517" x2="289.98" y2="132.931"/>
    <line class="cls-6" x1="322.029" y1="68.384" x2="322.029" y2="107.517"/>
    <line class="cls-6" x1="388.509" y1="68.384" x2="388.509" y2="132.931"/>
    <line class="cls-9" x1="430.721" y1="68.384" x2="430.721" y2="132.931"/>
    <circle class="cls-8" cx="490.572" cy="41.968" r="8.345"/>
    <circle class="cls-8" cx="490.572" cy="68.384" r="8.345"/>
    <rect class="cls-8" x="483.973" y="100.918" width="13.198" height="13.198" transform="translate(67.659 378.378) rotate(-45)"/>
    <rect class="cls-8" x="483.973" y="126.331" width="13.198" height="13.198" transform="translate(49.689 385.821) rotate(-45)"/>
    <line class="cls-4" x1="506.693" y1="41.968" x2="680.983" y2="41.968"/>
    <line class="cls-4" x1="506.693" y1="68.384" x2="680.983" y2="68.384"/>
    <line class="cls-4" x1="506.693" y1="107.517" x2="680.983" y2="107.517"/>
    <line class="cls-4" x1="506.693" y1="132.931" x2="680.983" y2="132.931"/>
    <rect class="cls-7" x="472.502" y="23.25" width="223.28" height="129.871" rx="5.699" ry="5.699"/>
    <line class="cls-6" x1="648.941" y1="41.968" x2="648.941" y2="68.384"/>
    <line class="cls-6" x1="664.826" y1="41.968" x2="664.826" y2="68.384"/>
    <line class="cls-9" x1="529.605" y1="107.517" x2="529.605" y2="132.931"/>
    <line class="cls-6" x1="605.361" y1="68.384" x2="605.361" y2="107.517"/>
    <line class="cls-6" x1="624.76" y1="68.384" x2="624.76" y2="132.931"/>
    <line class="cls-9" x1="549.563" y1="41.968" x2="549.563" y2="107.517"/>
    <polyline class="cls-4" points="664.75 83.933 680.377 87.494 665.303 91.71"/>
    <line class="cls-4" x1="680.377" y1="87.606" x2="648.941" y2="87.606"/>
    <circle class="cls-1" cx="49.988" cy="55.176" r="3.93"/>
    <circle class="cls-1" cx="152.258" cy="76.729" r="3.93"/>
    <circle class="cls-1" cx="289.98" cy="120.624" r="3.93"/>
    <circle class="cls-1" cx="430.721" cy="97.92" r="3.93"/>
    <circle class="cls-1" cx="301.221" cy="68.384" r="3.93"/>
    <circle class="cls-1" cx="549.563" cy="76.729" r="3.93"/>
    <circle class="cls-1" cx="529.605" cy="120.624" r="3.93"/>
    <line class="cls-9" x1="655.667" y1="107.517" x2="655.667" y2="132.931"/>
    <circle class="cls-1" cx="655.667" cy="120.624" r="3.93"/>
    <circle class="cls-1" cx="117.406" cy="68.384" r="3.93"/>
    <circle class="cls-1" cx="175.872" cy="68.384" r="3.93"/>
    <circle class="cls-1" cx="76.248" cy="41.968" r="3.93"/>
  </g>
  <g>
    <circle class="cls-6" cx="53.242" cy="236.521" r="5.119"/>
    <circle class="cls-6" cx="53.242" cy="252.725" r="5.119"/>
    <rect class="cls-6" x="49.194" y="272.682" width="8.096" height="8.096" transform="translate(-180.084 118.7) rotate(-45)"/>
    <rect class="cls-6" x="49.194" y="288.272" width="8.096" height="8.096" transform="translate(-191.107 123.266) rotate(-45)"/>
    <line class="cls-6" x1="63.131" y1="236.521" x2="170.046" y2="236.521"/>
    <line class="cls-6" x1="63.131" y1="252.725" x2="170.046" y2="252.725"/>
    <line class="cls-6" x1="63.131" y1="276.73" x2="170.046" y2="276.73"/>
    <line class="cls-6" x1="63.131" y1="292.32" x2="170.046" y2="292.32"/>
    <g>
      <line class="cls-6" x1="48.123" y1="264.516" x2="49.123" y2="264.516"/>
      <line class="cls-3" x1="51.123" y1="264.516" x2="438.236" y2="264.516"/>
      <line class="cls-6" x1="439.237" y1="264.516" x2="440.237" y2="264.516"/>
    </g>
    <rect class="cls-6" x="42.157" y="225.039" width="136.967" height="79.667" rx="3.496" ry="3.496"/>
    <line class="cls-6" x1="159.404" y1="236.521" x2="159.404" y2="252.725"/>
    <line class="cls-6" x1="72.821" y1="236.521" x2="72.821" y2="252.725"/>
    <line class="cls-6" x1="102.716" y1="276.73" x2="102.716" y2="292.935"/>
    <line class="cls-6" x1="94.776" y1="252.725" x2="94.776" y2="276.73"/>
    <line class="cls-6" x1="135.557" y1="236.521" x2="135.557" y2="276.73"/>
    <circle class="cls-6" cx="198.165" cy="236.521" r="5.119"/>
    <circle class="cls-6" cx="198.165" cy="252.725" r="5.119"/>
    <rect class="cls-6" x="194.117" y="272.682" width="8.096" height="8.096" transform="translate(-137.637 221.176) rotate(-45)"/>
    <rect class="cls-6" x="194.117" y="288.272" width="8.096" height="8.096" transform="translate(-148.66 225.742) rotate(-45)"/>
    <line class="cls-6" x1="208.054" y1="236.521" x2="314.969" y2="236.521"/>
    <line class="cls-6" x1="208.054" y1="252.725" x2="314.969" y2="252.725"/>
    <line class="cls-6" x1="208.054" y1="276.73" x2="314.969" y2="276.73"/>
    <line class="cls-6" x1="208.054" y1="292.32" x2="314.969" y2="292.32"/>
    <rect class="cls-6" x="187.08" y="225.039" width="136.967" height="79.667" rx="3.496" ry="3.496"/>
    <line class="cls-6" x1="231.757" y1="276.73" x2="231.757" y2="292.32"/>
    <line class="cls-6" x1="220.039" y1="276.73" x2="220.039" y2="292.32"/>
    <line class="cls-6" x1="239.699" y1="252.725" x2="239.699" y2="276.73"/>
    <line class="cls-6" x1="280.48" y1="252.725" x2="280.48" y2="292.32"/>
    <line class="cls-6" x1="306.374" y1="252.725" x2="306.374" y2="292.32"/>
    <circle class="cls-6" cx="343.088" cy="236.521" r="5.119"/>
    <circle class="cls-6" cx="343.088" cy="252.725" r="5.119"/>
    <rect class="cls-6" x="339.04" y="272.682" width="8.096" height="8.096" transform="translate(-95.19 323.653) rotate(-45)"/>
    <rect class="cls-6" x="339.04" y="288.272" width="8.096" height="8.096" transform="translate(-106.213 328.219) rotate(-45)"/>
    <line class="cls-6" x1="352.978" y1="236.521" x2="459.892" y2="236.521"/>
    <line class="cls-6" x1="352.978" y1="252.725" x2="459.892" y2="252.725"/>
    <line class="cls-6" x1="352.978" y1="276.73" x2="459.892" y2="276.73"/>
    <line class="cls-6" x1="352.978" y1="292.32" x2="459.892" y2="292.32"/>
    <rect class="cls-6" x="332.004" y="225.039" width="136.967" height="79.667" rx="3.496" ry="3.496"/>
    <line class="cls-6" x1="440.237" y1="236.521" x2="440.237" y2="252.725"/>
    <line class="cls-6" x1="449.98" y1="236.521" x2="449.98" y2="252.725"/>
    <line class="cls-6" x1="367.032" y1="276.73" x2="367.032" y2="292.32"/>
    <line class="cls-6" x1="413.503" y1="252.725" x2="413.503" y2="276.73"/>
    <line class="cls-6" x1="425.403" y1="252.725" x2="425.403" y2="292.32"/>
    <line class="cls-6" x1="379.275" y1="236.521" x2="379.275" y2="276.73"/>
    <polyline class="cls-6" points="449.934 262.263 459.52 264.448 450.273 267.034"/>
    <line class="cls-6" x1="459.52" y1="264.516" x2="440.237" y2="264.516"/>
    <line class="cls-6" x1="444.363" y1="276.73" x2="444.363" y2="292.32"/>
  </g>
  <g>
    <path class="cls-14" d="M233.728,329.697c-.528-.46-.868-1.114-1.021-1.962l.96-.156c.272,1.272.988,1.908,2.148,1.908.768,0,1.334-.29,1.698-.87.363-.58.546-1.39.546-2.43s-.183-1.85-.546-2.43c-.364-.58-.927-.87-1.687-.87-.6,0-1.069.172-1.41.516-.34.344-.582.809-.726,1.392l-.96-.155c.151-.832.494-1.482,1.026-1.95.531-.468,1.222-.702,2.069-.702,1.057,0,1.864.366,2.424,1.098.561.732.841,1.767.841,3.103s-.28,2.37-.841,3.102c-.56.732-1.372,1.099-2.436,1.099-.864,0-1.56-.23-2.088-.69ZM234.928,325.695h3.695v.912h-3.695v-.912Z"/>
    <path class="cls-14" d="M243.904,323.067h-2.424v-.96h5.88v.96h-2.424v7.2h-1.032v-7.2Z"/>
    <path class="cls-14" d="M251.296,322.107h1.319l2.532,8.16h-1.068l-2.22-7.584h.156l-2.185,7.584h-1.044l2.509-8.16ZM250.06,327.122h3.731v.912h-3.731v-.912Z"/>
    <path class="cls-14" d="M257.476,329.307h.191c.353,0,.61-.126.774-.378s.258-.706.282-1.362c.023-.664.042-1.498.054-2.502s.022-1.99.03-2.958h4.644v8.16h-1.031v-7.2h-2.652c-.017,1.824-.04,3.353-.072,4.584-.016.6-.084,1.09-.204,1.47s-.315.666-.588.858c-.271.191-.644.288-1.116.288h-.312v-.96Z"/>
    <path class="cls-14" d="M267.55,329.324c-.54-.708-.811-1.754-.811-3.138s.271-2.43.811-3.138,1.342-1.062,2.405-1.062,1.866.354,2.406,1.062.811,1.754.811,3.138-.271,2.43-.811,3.138-1.342,1.062-2.406,1.062-1.865-.354-2.405-1.062ZM271.594,328.647c.355-.552.533-1.372.533-2.46s-.178-1.908-.533-2.46c-.356-.552-.902-.828-1.639-.828s-1.282.276-1.638.828c-.356.552-.534,1.372-.534,2.46s.178,1.908.534,2.46c.355.552.902.828,1.638.828s1.282-.276,1.639-.828Z"/>
    <path class="cls-14" d="M276.459,322.107h1.032v3.576h3.456v-3.576h1.032v8.16h-1.032v-3.648h-3.456v3.648h-1.032v-8.16Z"/>
  </g>
  <g>
    <path class="cls-15" d="M278.916,177.571h1.031v3.564h1.213l2.243-3.564h1.116l-2.652,4.152v-.288l2.748,4.296h-1.176l-2.316-3.66h-1.176v3.66h-1.031v-8.16Z"/>
    <path class="cls-15" d="M287.634,184.789c-.54-.708-.81-1.754-.81-3.139s.27-2.43.81-3.138,1.342-1.062,2.405-1.062,1.867.354,2.406,1.062c.541.708.811,1.754.811,3.138s-.27,2.431-.811,3.139c-.539.708-1.342,1.062-2.406,1.062s-1.865-.354-2.405-1.062ZM291.678,184.111c.355-.552.533-1.371.533-2.46s-.178-1.907-.533-2.46c-.355-.552-.902-.828-1.639-.828s-1.281.276-1.637.828c-.357.553-.535,1.372-.535,2.46s.178,1.908.535,2.46c.355.553.901.828,1.637.828s1.283-.275,1.639-.828Z"/>
    <path class="cls-15" d="M296.543,177.571h1.032v3.576h3.456v-3.576h1.032v8.16h-1.032v-3.647h-3.456v3.647h-1.032v-8.16Z"/>
    <path class="cls-15" d="M305.832,177.571h1.031v3.576h3.456v-3.576h1.032v8.16h-1.032v-3.647h-3.456v3.647h-1.031v-8.16Z"/>
    <path class="cls-15" d="M315.119,177.571h5.04v.96h-4.009v2.604h3.744v.936h-3.744v2.7h3.973v.96h-5.004v-8.16Z"/>
    <path class="cls-15" d="M323.448,177.571h1.031v3.564h1.213l2.244-3.564h1.115l-2.651,4.152v-.288l2.747,4.296h-1.176l-2.315-3.66h-1.177v3.66h-1.031v-8.16Z"/>
    <path class="cls-15" d="M333.9,178.531h-2.425v-.96h5.881v.96h-2.424v7.2h-1.032v-7.2Z"/>
    <path class="cls-15" d="M340.614,184.789c-.54-.708-.811-1.754-.811-3.139s.271-2.43.811-3.138,1.342-1.062,2.406-1.062,1.865.354,2.406,1.062c.539.708.81,1.754.81,3.138s-.271,2.431-.81,3.139c-.541.708-1.343,1.062-2.406,1.062s-1.866-.354-2.406-1.062ZM344.658,184.111c.356-.552.534-1.371.534-2.46s-.178-1.907-.534-2.46c-.356-.552-.902-.828-1.638-.828s-1.283.276-1.639.828c-.355.553-.533,1.372-.533,2.46s.178,1.908.533,2.46c.355.553.902.828,1.639.828s1.281-.275,1.638-.828Z"/>
    <path class="cls-15" d="M349.524,177.571h1.416l1.691,5.221h-.348l1.703-5.221h1.416v8.16h-.947v-7.716h.275l-1.836,5.508h-.863l-1.848-5.46h.287v7.668h-.947v-8.16Z"/>
  </g>
  <g>
    <path class="cls-13" d="M336.874,7.427c-.56-.732-.84-1.766-.84-3.103s.28-2.37.84-3.102c.561-.732,1.372-1.098,2.437-1.098.872,0,1.565.229,2.082.689.516.46.842,1.114.978,1.962l-.972.156c-.145-.6-.374-1.066-.69-1.398-.315-.331-.782-.498-1.397-.498-.761,0-1.322.29-1.687.87s-.546,1.387-.546,2.418.182,1.839.546,2.418c.364.58.926.87,1.687.87.624,0,1.1-.164,1.428-.492.328-.327.556-.796.684-1.403l.973.155c-.152.856-.486,1.513-1.002,1.969-.517.456-1.21.684-2.082.684-1.064,0-1.876-.366-2.437-1.098Z"/>
    <path class="cls-13" d="M345.299,7.445h1.319c.48,0,.872-.069,1.176-.21.305-.14.532-.361.685-.666.151-.304.228-.708.228-1.212V1.181h-2.819V.244h3.852v5.112c0,.729-.11,1.314-.33,1.758-.22.444-.556.771-1.008.979s-1.042.312-1.77.312h-1.332v-.96Z"/>
    <path class="cls-13" d="M353.386.244h1.416l1.692,5.221h-.349l1.704-5.221h1.416v8.16h-.947V.689h.275l-1.836,5.508h-.864l-1.848-5.46h.288v7.668h-.948V.244Z"/>
  </g>
  <line class="cls-11" x1="49.988" y1="55.176" x2="72.821" y2="244.623"/>
  <line class="cls-11" x1="76.248" y1="41.968" x2="88.332" y2="236.521"/>
  <line class="cls-11" x1="117.406" y1="68.384" x2="116.588" y2="252.725"/>
  <line class="cls-11" x1="152.258" y1="76.729" x2="135.557" y2="257.844"/>
  <line class="cls-11" x1="175.872" y1="68.384" x2="151.632" y2="252.725"/>
  <line class="cls-11" x1="289.98" y1="120.624" x2="220.684" y2="284.833"/>
  <line class="cls-11" x1="301.221" y1="68.384" x2="227.349" y2="252.725"/>
  <line class="cls-11" x1="430.721" y1="97.92" x2="306.374" y2="271.553"/>
  <line class="cls-11" x1="529.605" y1="120.224" x2="367.204" y2="284.525"/>
  <line class="cls-11" x1="549.563" y1="76.729" x2="380.174" y2="257.844"/>
  <line class="cls-11" x1="344.245" y1="175.986" x2="346.635" y2="171.536"/>
  <line class="cls-11" x1="655.667" y1="120.624" x2="444.363" y2="284.833"/>
  <g>
    <path class="cls-14" d="M572.253,329.697c-.527-.46-.868-1.114-1.02-1.962l.96-.156c.271,1.272.988,1.908,2.147,1.908.769,0,1.334-.29,1.698-.87s.546-1.39.546-2.43-.182-1.85-.546-2.43-.926-.87-1.686-.87c-.601,0-1.07.172-1.41.516s-.582.809-.727,1.392l-.96-.155c.152-.832.494-1.482,1.026-1.95s1.222-.702,2.07-.702c1.056,0,1.863.366,2.424,1.098.56.732.84,1.767.84,3.103s-.28,2.37-.84,3.102c-.561.732-1.372,1.099-2.437,1.099-.863,0-1.56-.23-2.088-.69ZM573.453,325.695h3.696v.912h-3.696v-.912Z"/>
    <path class="cls-14" d="M580.906,322.107h1.031v3.563h1.213l2.243-3.563h1.116l-2.651,4.152v-.288l2.747,4.296h-1.176l-2.315-3.66h-1.177v3.66h-1.031v-8.16Z"/>
    <path class="cls-14" d="M589.654,329.288c-.561-.731-.84-1.766-.84-3.102s.279-2.37.84-3.103c.56-.731,1.372-1.098,2.436-1.098.872,0,1.566.23,2.082.69.517.46.842,1.113.979,1.962l-.973.155c-.144-.6-.374-1.065-.689-1.397-.316-.332-.782-.498-1.398-.498-.76,0-1.322.29-1.686.87-.364.58-.546,1.386-.546,2.418s.182,1.838.546,2.418c.363.58.926.87,1.686.87.624,0,1.101-.164,1.429-.492.327-.328.556-.796.684-1.404l.972.156c-.151.856-.485,1.512-1.002,1.968-.516.456-1.21.685-2.082.685-1.063,0-1.876-.366-2.436-1.099Z"/>
    <path class="cls-14" d="M598.533,322.107h5.04v.96h-4.009v2.604h3.744v.937h-3.744v2.7h3.973v.96h-5.004v-8.16Z"/>
    <path class="cls-14" d="M606.141,329.307h.192c.352,0,.61-.126.774-.378.163-.252.258-.706.281-1.362.024-.664.042-1.498.055-2.502.012-1.004.021-1.99.029-2.958h4.645v8.16h-1.032v-7.2h-2.652c-.016,1.824-.04,3.353-.071,4.584-.017.6-.084,1.09-.204,1.47s-.316.666-.588.858c-.272.191-.645.288-1.116.288h-.312v-.96Z"/>
    <path class="cls-14" d="M615.885,322.107h5.04v.96h-4.008v2.604h3.744v.937h-3.744v2.7h3.972v.96h-5.004v-8.16Z"/>
    <path class="cls-14" d="M624.213,322.107h1.032v3.576h3.456v-3.576h1.032v8.16h-1.032v-3.648h-3.456v3.648h-1.032v-8.16Z"/>
    <path class="cls-14" d="M638.793,330.267h-5.292v-8.16h1.031v7.2h3.337v-7.2h1.031v7.2h.9v2.676h-1.008v-1.716Z"/>
  </g>
  <rect class="cls-6" x="536.878" y="292.32" width="101.166" height="12.385" rx="3.496" ry="3.496"/>
  <rect class="cls-10" x="640.243" y="292.32" width="33.601" height="12.385" rx="3.496" ry="3.496"/>
  <rect class="cls-6" x="536.878" y="225.039" width="136.967" height="63.972" rx="3.496" ry="3.496"/>
  <line class="cls-6" x1="544.709" y1="236.521" x2="649.656" y2="236.521"/>
  <line class="cls-6" x1="544.709" y1="244.623" x2="654.656" y2="244.623"/>
  <line class="cls-6" x1="544.709" y1="252.725" x2="649.656" y2="252.725"/>
  <line class="cls-6" x1="544.709" y1="260.827" x2="654.656" y2="260.827"/>
  <line class="cls-6" x1="544.709" y1="268.929" x2="610.536" y2="268.929"/>
  <line class="cls-6" x1="544.709" y1="298.513" x2="574.55" y2="298.513"/>
  <line class="cls-5" x1="649.656" y1="298.513" x2="665.012" y2="298.513"/>
</svg>